<svg width="30" height="30" viewBox="0 0 30 30" fill="none" xmlns="http://www.w3.org/2000/svg">
<path d="M8.15094 15.552L15.116 8.58686C16.492 7.21096 18.7238 6.99385 20.225 8.2317C21.95 9.65391 22.0358 12.2018 20.4953 13.7423L12.3584 21.8792C11.496 22.7416 10.0937 22.9061 9.15213 22.1358C8.06575 21.2469 8.00639 19.647 8.97413 18.6793L15.8866 11.7669C16.2486 11.4048 16.8412 11.4048 17.2033 11.767C17.5654 12.1291 17.5655 12.7216 17.2034 13.0837L11.443 18.8441C11.1731 19.114 11.1732 19.5617 11.4431 19.8316C11.7131 20.1016 12.1608 20.1016 12.4307 19.8317L18.0989 14.1635C18.9613 13.3011 19.1258 11.8988 18.3554 10.9572C17.4665 9.87086 15.8667 9.81149 14.8989 10.7792L8.09841 17.5798C6.72251 18.9557 6.5054 21.1875 7.74325 22.6887C9.15887 24.4072 11.7134 24.4995 13.2539 22.959L21.3315 14.8814C23.2209 12.992 23.5302 9.91737 21.8248 7.85654C19.8561 5.49284 16.3601 5.3675 14.2403 7.48731L7.16331 14.5643C6.89339 14.8343 6.89343 15.2819 7.16338 15.5519C7.43333 15.8219 7.88103 15.8219 8.15094 15.552Z" fill="black"/>
</svg>
